<svg width="22" height="20" viewBox="0 0 22 20" fill="none" xmlns="http://www.w3.org/2000/svg">
<path d="M0.814697 18.8685V4.15439C0.814697 3.9638 0.855006 3.78989 0.935622 3.63264C1.01624 3.47539 1.13517 3.34079 1.29242 3.22884L5.34025 0.294611C5.5435 0.149311 5.76342 0.0766602 6.00002 0.0766602C6.23662 0.0766602 6.45655 0.149311 6.6598 0.294611L10.7076 3.22884C10.8649 3.34079 10.9838 3.47539 11.0644 3.63264C11.145 3.78989 11.1853 3.9638 11.1853 4.15439V5.64134H20.0478C20.3671 5.64134 20.6364 5.75112 20.856 5.97069C21.0756 6.19025 21.1853 6.45964 21.1853 6.77884V18.8685C21.1853 19.1877 21.0756 19.4571 20.856 19.6767C20.6364 19.8962 20.3671 20.006 20.0478 20.006H1.9522C1.633 20.006 1.36361 19.8962 1.14405 19.6767C0.924481 19.4571 0.814697 19.1877 0.814697 18.8685ZM3.00002 17.8207H5.00002V15.8207H3.00002V17.8207ZM3.00002 13.8207H5.00002V11.8207H3.00002V13.8207ZM3.00002 9.82069H5.00002V7.82068H3.00002V9.82069ZM3.00002 5.82068H5.00002V3.82068H3.00002V5.82068ZM7.00002 5.82068H9.00002V3.82068H7.00002V5.82068ZM7.00002 17.8207H19V7.82068H7.00002V17.8207ZM14 9.82069H16C16.2834 9.82069 16.5209 9.91652 16.7125 10.1082C16.9042 10.2999 17 10.5374 17 10.8207C17 11.104 16.9042 11.3415 16.7125 11.5332C16.5209 11.7249 16.2834 11.8207 16 11.8207H14C13.7167 11.8207 13.4792 11.7249 13.2875 11.5332C13.0959 11.3415 13 11.104 13 10.8207C13 10.5374 13.0959 10.2999 13.2875 10.1082C13.4792 9.91652 13.7167 9.82069 14 9.82069ZM14 13.8207H16C16.2834 13.8207 16.5209 13.9165 16.7125 14.1082C16.9042 14.2999 17 14.5374 17 14.8207C17 15.104 16.9042 15.3415 16.7125 15.5332C16.5209 15.7249 16.2834 15.8207 16 15.8207H14C13.7167 15.8207 13.4792 15.7249 13.2875 15.5332C13.0959 15.3415 13 15.104 13 14.8207C13 14.5374 13.0959 14.2999 13.2875 14.1082C13.4792 13.9165 13.7167 13.8207 14 13.8207ZM11 10.8207C11 11.104 10.9042 11.3415 10.7125 11.5332C10.5209 11.7249 10.2834 11.8207 10 11.8207C9.71669 11.8207 9.47919 11.7249 9.28752 11.5332C9.09586 11.3415 9.00002 11.104 9.00002 10.8207C9.00002 10.5374 9.09586 10.2999 9.28752 10.1082C9.47919 9.91652 9.71669 9.82069 10 9.82069C10.2834 9.82069 10.5209 9.91652 10.7125 10.1082C10.9042 10.2999 11 10.5374 11 10.8207ZM10 15.8207C9.71669 15.8207 9.47919 15.7249 9.28752 15.5332C9.09586 15.3415 9.00002 15.104 9.00002 14.8207C9.00002 14.5374 9.09586 14.2999 9.28752 14.1082C9.47919 13.9165 9.71669 13.8207 10 13.8207C10.2834 13.8207 10.5209 13.9165 10.7125 14.1082C10.9042 14.2999 11 14.5374 11 14.8207C11 15.104 10.9042 15.3415 10.7125 15.5332C10.5209 15.7249 10.2834 15.8207 10 15.8207Z" fill="#6C737F"/>
</svg>
