<svg width="22" height="22" viewBox="0 0 22 22" fill="none" xmlns="http://www.w3.org/2000/svg">
<path d="M21.1961 16.0157L21.1592 16.0457L19.1611 17.673L19.9884 20.1911C19.9884 20.1911 19.9884 20.1911 19.9884 20.1912C20.118 20.581 19.9864 21.0104 19.6605 21.2609C19.3347 21.5112 18.8861 21.5287 18.5428 21.3053L18.5427 21.3053L16.2103 19.7867L13.9174 21.3209L21.1961 16.0157ZM21.1961 16.0157V16.0122M21.1961 16.0157V16.0122M21.1961 16.0122C21.4794 15.7483 21.5796 15.3385 21.4458 14.9723C21.3065 14.5913 20.944 14.337 20.5377 14.337H18.0063L17.1092 11.8196L17.1087 11.8185C16.9684 11.4401 16.6058 11.1888 16.2026 11.1888C15.7992 11.1888 15.4376 11.4402 15.2965 11.8182L15.296 11.8197L14.3989 14.337H11.8674C11.4622 14.337 11.1005 14.5895 10.9603 14.9703C10.8201 15.3514 10.9333 15.7789 11.2427 16.041L11.2427 16.041L11.2442 16.0422L13.2526 17.6763L12.457 20.2265L21.1961 16.0122ZM7.53229 11.081C10.4565 11.081 12.8345 8.70305 12.8345 5.77883C12.8345 2.8546 10.4565 0.47666 7.53229 0.47666C4.60807 0.47666 2.23012 2.8546 2.23012 5.77883C2.23012 8.70305 4.60807 11.081 7.53229 11.081ZM7.53229 2.41072C9.38973 2.41072 10.9004 3.92139 10.9004 5.77883C10.9004 7.63626 9.38973 9.14694 7.53229 9.14694C5.67486 9.14694 4.16418 7.63626 4.16418 5.77883C4.16418 3.92139 5.67486 2.41072 7.53229 2.41072ZM8.39932 14.5491C8.93315 14.5491 9.36635 14.1159 9.36635 13.5821C9.36635 13.0482 8.93315 12.615 8.39932 12.615C4.0419 12.615 0.496069 16.1609 0.496069 20.5183C0.496069 21.0521 0.929269 21.4853 1.4631 21.4853C1.99692 21.4853 2.43012 21.0521 2.43012 20.5183C2.43012 17.2268 5.10782 14.5491 8.39932 14.5491ZM13.3795 21.4845C13.5669 21.4845 13.7546 21.4304 13.9172 21.321L12.4569 20.2267C12.3343 20.6179 12.4704 21.0453 12.7995 21.2912C12.9714 21.4196 13.1754 21.4845 13.3795 21.4845Z" fill="#6C737F" stroke="#6C737F" stroke-width="0.2"/>
</svg>
