<svg width="22" height="21" viewBox="0 0 22 21" fill="none" xmlns="http://www.w3.org/2000/svg">
<path d="M10.9321 16.5C11.298 16.5 11.6088 16.3722 11.8644 16.1166C12.12 15.861 12.2479 15.5499 12.2479 15.1834C12.2479 14.8169 12.12 14.5071 11.8644 14.2541C11.6088 14.001 11.298 13.8745 10.9321 13.8745C10.5662 13.8745 10.2554 14.001 9.99975 14.2541C9.74414 14.5071 9.61633 14.8169 9.61633 15.1834C9.61633 15.5499 9.74414 15.861 9.99975 16.1166C10.2554 16.3722 10.5662 16.5 10.9321 16.5ZM11 20.7033C9.58481 20.7033 8.25694 20.4356 7.0164 19.9004C5.77587 19.3651 4.69678 18.6386 3.77913 17.7209C2.86148 16.8033 2.135 15.7242 1.5997 14.4837C1.0644 13.2431 0.796753 11.9152 0.796753 10.5C0.796753 9.08481 1.0644 7.75694 1.5997 6.5164C2.135 5.27587 2.86148 4.19678 3.77913 3.27913C4.69678 2.36148 5.77587 1.635 7.0164 1.0997C8.25694 0.564402 9.58481 0.296753 11 0.296753C12.4152 0.296753 13.7431 0.564402 14.9837 1.0997C16.2242 1.635 17.3033 2.36148 18.2209 3.27913C19.1386 4.19678 19.8651 5.27587 20.4004 6.5164C20.9357 7.75694 21.2033 9.08481 21.2033 10.5C21.2033 11.9152 20.9357 13.2431 20.4004 14.4837C19.8651 15.7242 19.1386 16.8033 18.2209 17.7209C17.3033 18.6386 16.2242 19.3651 14.9837 19.9004C13.7431 20.4357 12.4152 20.7033 11 20.7033ZM11 18.4283C13.2174 18.4283 15.0931 17.6613 16.6272 16.1272C18.1613 14.5931 18.9283 12.7174 18.9283 10.5C18.9283 8.28264 18.1613 6.40692 16.6272 4.87285C15.0931 3.3388 13.2174 2.57178 11 2.57178C8.78264 2.57178 6.90692 3.3388 5.37285 4.87285C3.8388 6.40692 3.07178 8.28264 3.07178 10.5C3.07178 12.7174 3.8388 14.5931 5.37285 16.1272C6.90692 17.6613 8.78264 18.4283 11 18.4283ZM11.0821 6.32558C11.4666 6.32558 11.8012 6.4498 12.0857 6.69825C12.3703 6.94669 12.5125 7.25724 12.5125 7.62993C12.5125 7.97666 12.407 8.28572 12.196 8.5571C11.9849 8.82847 11.7457 9.08119 11.4783 9.31525C11.0949 9.64859 10.7565 10.0172 10.4628 10.4212C10.1691 10.8252 10.0223 11.2772 10.0223 11.7772C10.0223 12.0241 10.1152 12.2313 10.3011 12.3988C10.487 12.5663 10.7039 12.65 10.9517 12.65C11.2173 12.65 11.4435 12.5617 11.6305 12.3851C11.8174 12.2084 11.9439 11.9892 12.0098 11.7272C12.0845 11.3931 12.2315 11.0956 12.4509 10.8345C12.6702 10.5735 12.9073 10.3239 13.162 10.0859C13.5453 9.72322 13.8705 9.32222 14.1375 8.8829C14.4046 8.4436 14.5381 7.95928 14.5381 7.42993C14.5381 6.57194 14.1952 5.86714 13.5095 5.31553C12.8238 4.76389 12.0247 4.48808 11.112 4.48808C10.4627 4.48808 9.84759 4.62539 9.2666 4.90003C8.68562 5.17466 8.23716 5.59097 7.92123 6.14895C7.79659 6.3609 7.75698 6.58729 7.80238 6.8281C7.84778 7.06894 7.97036 7.25179 8.17013 7.37665C8.41543 7.52195 8.67205 7.56661 8.93998 7.51063C9.20791 7.45464 9.43318 7.306 9.61578 7.0647C9.79114 6.83065 10.0086 6.64895 10.2681 6.5196C10.5276 6.39025 10.799 6.32558 11.0821 6.32558Z" fill="#6C737F"/>
</svg>
