<svg width="22" height="21" viewBox="0 0 22 21" fill="none" xmlns="http://www.w3.org/2000/svg">
<path d="M13.4413 20.0724C13.0021 20.5115 12.4634 20.7311 11.825 20.7311C11.1866 20.7311 10.6478 20.5115 10.2087 20.0724L1.40868 11.2724C1.19744 11.0611 1.03068 10.8146 0.908401 10.5327C0.786117 10.2508 0.724976 9.95025 0.724976 9.63105V2.48105C0.724976 1.85532 0.947709 1.31972 1.39318 0.874255C1.83864 0.428789 2.37424 0.206055 2.99998 0.206055H10.15C10.4692 0.206055 10.7697 0.267196 11.0516 0.389479C11.3335 0.511762 11.58 0.678522 11.7913 0.889755L20.5913 9.70878C21.0304 10.1479 21.25 10.6835 21.25 11.3156C21.25 11.9476 21.0304 12.4832 20.5913 12.9224L13.4413 20.0724ZM11.831 18.4811L18.981 11.3311L10.15 2.48105H2.99998V9.63105L11.831 18.4811ZM5.49998 6.48105C5.91664 6.48105 6.27081 6.33522 6.56248 6.04355C6.85414 5.75189 6.99998 5.39772 6.99998 4.98105C6.99998 4.56439 6.85414 4.21022 6.56248 3.91855C6.27081 3.62689 5.91664 3.48105 5.49998 3.48105C5.08331 3.48105 4.72914 3.62689 4.43748 3.91855C4.14581 4.21022 3.99998 4.56439 3.99998 4.98105C3.99998 5.39772 4.14581 5.75189 4.43748 6.04355C4.72914 6.33522 5.08331 6.48105 5.49998 6.48105ZM12.8016 15.1794L15.5 12.4811C15.6833 12.2977 15.8291 12.0811 15.9375 11.8311C16.0458 11.5811 16.1 11.3144 16.1 11.0311C16.1 10.4644 15.9 9.98105 15.5 9.58105C15.1 9.18106 14.6166 8.98106 14.05 8.98106C13.7333 8.98106 13.4208 9.07272 13.1125 9.25605C12.8041 9.43939 12.4333 9.74772 12 10.1811C11.5 9.71439 11.1083 9.39772 10.825 9.23106C10.5416 9.06439 10.25 8.98106 9.94998 8.98106C9.38331 8.98106 8.89998 9.18106 8.49998 9.58105C8.09998 9.98105 7.89998 10.4644 7.89998 11.0311C7.89998 11.3144 7.95414 11.5811 8.06248 11.8311C8.17081 12.0811 8.31664 12.2977 8.49998 12.4811L11.1984 15.1794C11.4263 15.4073 11.6935 15.5213 12 15.5213C12.3065 15.5213 12.5737 15.4073 12.8016 15.1794Z" fill="#6C737F"/>
</svg>
