<svg width="18" height="22" viewBox="0 0 18 22" fill="none" xmlns="http://www.w3.org/2000/svg">
<path d="M1.93428 18.1841C1.61506 18.1841 1.34567 18.0744 1.1261 17.8548C0.906536 17.6352 0.796753 17.3658 0.796753 17.0466C0.796753 16.7274 0.906536 16.458 1.1261 16.2385C1.34567 16.0189 1.61506 15.9091 1.93428 15.9091H2.72503V9.11239C2.72503 7.67724 3.15265 6.39725 4.0079 5.27244C4.86315 4.14762 5.98136 3.41256 7.36253 3.06726V2.41511C7.36253 1.96025 7.52173 1.57361 7.84013 1.25521C8.15853 0.936796 8.54516 0.777588 9.00003 0.777588C9.45489 0.777588 9.84153 0.936796 10.1599 1.25521C10.4783 1.57361 10.6375 1.96025 10.6375 2.41511V3.06726C12.0227 3.41256 13.1419 4.14662 13.9952 5.26944C14.8484 6.39227 15.275 7.67325 15.275 9.11239V15.9091H16.0658C16.385 15.9091 16.6544 16.0189 16.874 16.2385C17.0935 16.458 17.2033 16.7274 17.2033 17.0466C17.2033 17.3658 17.0935 17.6352 16.874 17.8548C16.6544 18.0744 16.385 18.1841 16.0658 18.1841H1.93428ZM9.006 21.2499C8.43627 21.2499 7.94855 21.0476 7.54283 20.6431C7.13713 20.2385 6.93428 19.7522 6.93428 19.1841H11.0718C11.0718 19.7541 10.8695 20.2408 10.465 20.6445C10.0604 21.0481 9.57409 21.2499 9.006 21.2499ZM5.00003 15.9091H13V9.11239C13 8.01239 12.6084 7.07072 11.825 6.28739C11.0417 5.50405 10.1 5.11239 9.00003 5.11239C7.90003 5.11239 6.95836 5.50405 6.17503 6.28739C5.39169 7.07072 5.00003 8.01239 5.00003 9.11239V15.9091Z" fill="#6C737F"/>
</svg>
