<svg width="22" height="21" viewBox="0 0 22 21" fill="none" xmlns="http://www.w3.org/2000/svg">
<path d="M7.04623 13.451C7.27159 14.2789 7.63808 14.9446 8.14568 15.4483C8.65329 15.9519 9.2888 16.2914 10.0522 16.4667V16.808C10.0522 17.0573 10.1437 17.2734 10.3267 17.4564C10.5096 17.6394 10.7257 17.7309 10.975 17.7309C11.2243 17.7309 11.4404 17.6394 11.6234 17.4564C11.8064 17.2734 11.8979 17.0573 11.8979 16.808V16.5167C12.7232 16.3667 13.4379 16.0417 14.0419 15.5417C14.6459 15.0417 14.9479 14.2881 14.9479 13.2809C14.9479 12.5689 14.7459 11.9163 14.3419 11.323C13.9379 10.7297 13.1299 10.2164 11.918 9.78304C10.922 9.4497 10.2363 9.15804 9.8609 8.90804C9.48554 8.65804 9.29785 8.32235 9.29785 7.90096C9.29785 7.49155 9.44704 7.16881 9.7454 6.93276C10.0438 6.69671 10.4667 6.57869 11.0142 6.57869C11.5395 6.57869 11.9552 6.70785 12.2612 6.96619C12.5671 7.22452 12.7868 7.55133 12.9201 7.94661L14.6038 7.26076C14.4125 6.64555 14.074 6.12027 13.5884 5.68494C13.1027 5.2496 12.5558 5.00295 11.9479 4.94499V4.65369C11.9479 4.40442 11.8564 4.1883 11.6734 4.00531C11.4904 3.82235 11.2743 3.73086 11.025 3.73086C10.7757 3.73086 10.5596 3.82235 10.3767 4.00531C10.1937 4.1883 10.1022 4.40442 10.1022 4.65369V4.94499C9.25292 5.13629 8.59894 5.51093 8.14025 6.06891C7.68155 6.62688 7.4522 7.24753 7.4522 7.93086C7.4522 8.73015 7.68834 9.37743 8.16063 9.87271C8.63291 10.368 9.38663 10.7986 10.4218 11.1646C11.42 11.524 12.1162 11.8497 12.5106 12.1417C12.905 12.4338 13.1022 12.8135 13.1022 13.2809C13.1022 13.8149 12.9163 14.2071 12.5446 14.4575C12.1729 14.7079 11.708 14.833 11.15 14.833C10.6 14.833 10.1165 14.6632 9.69948 14.3235C9.28246 13.9838 8.97595 13.4644 8.77993 12.7651L7.04623 13.451ZM11 20.9341C9.58481 20.9341 8.25691 20.6667 7.01633 20.1317C5.77574 19.5967 4.69649 18.8703 3.77855 17.9523C2.86062 17.0344 2.13417 15.9551 1.5992 14.7146C1.06424 13.474 0.796753 12.1461 0.796753 10.7309C0.796753 9.31565 1.06424 7.98775 1.5992 6.74716C2.13417 5.50658 2.86062 4.42732 3.77855 3.50939C4.69649 2.59145 5.77574 1.865 7.01633 1.33004C8.25691 0.79507 9.58481 0.527588 11 0.527588C12.4152 0.527588 13.7431 0.79507 14.9837 1.33004C16.2243 1.865 17.3036 2.59145 18.2215 3.50939C19.1394 4.42732 19.8659 5.50658 20.4009 6.74716C20.9358 7.98775 21.2033 9.31565 21.2033 10.7309C21.2033 12.1461 20.9358 13.474 20.4009 14.7146C19.8659 15.9551 19.1394 17.0344 18.2215 17.9523C17.3036 18.8703 16.2243 19.5967 14.9837 20.1317C13.7431 20.6667 12.4152 20.9341 11 20.9341ZM11 18.6591C13.2174 18.6591 15.0931 17.8921 16.6272 16.358C18.1613 14.824 18.9283 12.9482 18.9283 10.7309C18.9283 8.51348 18.1613 6.63775 16.6272 5.10369C15.0931 3.56964 13.2174 2.80261 11 2.80261C8.78264 2.80261 6.90692 3.56964 5.37285 5.10369C3.8388 6.63775 3.07178 8.51348 3.07178 10.7309C3.07178 12.9482 3.8388 14.824 5.37285 16.358C6.90692 17.8921 8.78264 18.6591 11 18.6591Z" fill="#6C737F"/>
</svg>
