<svg width="22" height="22" viewBox="0 0 22 22" fill="none" xmlns="http://www.w3.org/2000/svg">
<path d="M3.77853 18.4538L3.77847 18.4538C2.80179 17.4762 2.3026 16.1293 2.40524 14.7514C1.38464 13.9171 0.786719 12.6113 0.786719 11.231C0.786719 9.84881 1.386 8.54373 2.43357 7.64249C2.30159 6.33163 2.8023 4.98519 3.77847 4.009L3.77853 18.4538ZM3.77853 18.4538C4.75462 19.4291 6.09862 19.9324 7.41209 19.7988C8.31333 20.8455 9.61837 21.4447 11.0005 21.4447C12.3808 21.4447 13.6866 20.846 14.5209 19.8262C15.8972 19.9289 17.2441 19.4305 18.2224 18.453L18.2225 18.4529C19.1987 17.4768 19.6994 16.1303 19.5674 14.8194C20.615 13.9182 21.2143 12.6131 21.2143 11.231C21.2143 9.85066 20.6163 8.54485 19.5957 7.71053C19.6984 6.33261 19.1992 4.98568 18.2225 4.00816L18.2224 4.0081M3.77853 18.4538L18.2224 4.0081M18.2224 4.0081C17.2463 3.0328 15.9039 2.53036 14.5889 2.66318C13.6877 1.61646 12.3826 1.01719 11.0005 1.01719C9.62016 1.01719 8.3144 1.61594 7.4801 2.63568M18.2224 4.0081L7.4801 2.63568M8.81902 18.5428L8.81907 18.5428C9.36313 19.1887 10.1578 19.5591 11.0005 19.5591C11.8432 19.5591 12.6378 19.1887 13.1819 18.5429C13.5426 18.1141 14.069 17.8973 14.6285 17.9429L14.6288 17.9429C15.4711 18.0138 16.2933 17.7149 16.8893 17.1189C17.4845 16.5238 17.785 15.6999 17.7133 14.8586L8.81902 18.5428ZM8.81902 18.5428C8.49081 18.1538 8.02463 17.9375 7.52219 17.9375C7.47261 17.9375 7.42245 17.9393 7.37102 17.9438L7.37976 18.0434M8.81902 18.5428L7.37976 18.0434M13.1819 3.91826L13.1819 3.91823C12.6378 3.27236 11.8432 2.90197 11.0005 2.90197C10.1578 2.90197 9.36313 3.27236 8.81907 3.91823L8.81903 3.91828C8.45733 4.34712 7.9293 4.56196 7.37276 4.51818L7.37197 4.51812C6.52584 4.44482 5.70782 4.74597 5.11166 5.34213C4.51647 5.93732 4.21599 6.76124 4.28766 7.60258C4.33594 8.16092 4.1171 8.68902 3.68773 9.05041C3.04276 9.5936 2.67235 10.389 2.67235 11.231C2.67235 12.0729 3.04276 12.8683 3.68775 13.4115C4.11627 13.7721 4.33596 14.301 4.28765 14.8594M13.1819 3.91826L4.28765 14.8595C4.28765 14.8594 4.28765 14.8594 4.28765 14.8594M13.1819 3.91826C13.5421 4.34548 14.0692 4.56817 14.6298 4.51728C15.4665 4.44898 16.2936 4.7464 16.8894 5.34133C17.4853 5.93644 17.785 6.76028 17.7133 7.60166C17.665 8.16004 17.8847 8.689 18.3132 9.04955C18.9582 9.59274 19.3286 10.3882 19.3286 11.2301C19.3286 12.072 18.9582 12.8675 18.3132 13.4107M13.1819 3.91826L18.3132 13.4107M4.28765 14.8594C4.216 15.7008 4.51569 16.5246 5.11161 17.1197L5.11166 17.1198C5.70752 17.7156 6.53899 18.0138 7.37137 17.9438L7.37976 18.0434M4.28765 14.8594L7.37976 18.0434M7.4801 2.63568C6.10059 2.53218 4.75607 3.03057 3.7785 4.00897L7.4801 2.63568ZM18.3132 13.4107C17.8839 13.7721 17.665 14.3002 17.7133 14.8585L18.3132 13.4107ZM13.2094 7.91813C13.643 8.20669 13.7599 8.79299 13.4705 9.22575L13.2094 7.91813ZM13.2094 7.91813C12.7747 7.62773 12.1901 7.74665 11.9017 8.17928L8.53052 13.236L13.2094 7.91813ZM8.79163 14.5438C8.35796 14.2553 8.24107 13.6689 8.53043 13.2362L8.79163 14.5438ZM8.79163 14.5438C8.95272 14.6512 9.13397 14.7022 9.31402 14.7022M8.79163 14.5438L9.31402 14.7022M9.31402 14.7022C9.61801 14.7022 9.91801 14.5554 10.0993 14.2826L9.31402 14.7022ZM8.47205 7.7597C7.95158 7.7597 7.52923 8.18205 7.52923 8.70251C7.52923 9.22298 7.95158 9.64533 8.47205 9.64533C8.99251 9.64533 9.41486 9.22298 9.41486 8.70251C9.41486 8.18205 8.99251 7.7597 8.47205 7.7597ZM13.5289 12.8166C13.0085 12.8166 12.5861 13.2389 12.5861 13.7594C12.5861 14.2799 13.0085 14.7022 13.5289 14.7022C14.0494 14.7022 14.4717 14.2799 14.4717 13.7594C14.4717 13.2389 14.0494 12.8166 13.5289 12.8166ZM10.0994 14.2825L13.4705 9.22587L10.0994 14.2825Z" fill="#6C737F" stroke="#6C737F" stroke-width="0.2"/>
</svg>
