<svg width="22" height="23" viewBox="0 0 22 23" fill="none" xmlns="http://www.w3.org/2000/svg">
<path d="M8.74991 13.8865L8.77514 14.0898C8.8426 14.6335 8.45756 15.1286 7.91306 15.197L7.91298 15.197C4.84852 15.5798 2.53684 18.2003 2.53684 21.2949C2.53684 21.8427 2.09237 22.2871 1.54465 22.2871C0.996937 22.2871 0.552466 21.8427 0.552466 21.2949C0.552466 17.2022 3.61075 13.7345 7.6667 13.2285L8.74991 13.8865ZM8.74991 13.8865L8.73235 13.9041M8.74991 13.8865L8.73235 13.9041M8.73235 13.9041C8.58664 13.4609 8.14153 13.1682 7.66695 13.2285L8.73235 13.9041ZM20.9524 17.7582L20.9524 17.7583C21.4267 18.0321 21.5894 18.6384 21.3156 19.1135L21.229 19.0636L21.3156 19.1135C21.1319 19.4322 20.7983 19.6097 20.4554 19.6097C20.2876 19.6097 20.1169 19.5669 19.9603 19.4768L19.9602 19.4767L19.1621 19.0157C18.5442 19.6877 17.7371 20.1851 16.8127 20.3917V21.2932C16.8127 21.8409 16.3682 22.2853 15.8205 22.2853C15.2728 22.2853 14.8283 21.8409 14.8283 21.2932V20.3918C13.9039 20.1859 13.0968 19.6885 12.4789 19.0158L11.6808 19.4767L11.6807 19.4768C11.5242 19.5669 11.3535 19.6097 11.1856 19.6097C10.8426 19.6097 10.5101 19.4321 10.3256 19.1137L10.3255 19.1136C10.0516 18.6393 10.2143 18.0321 10.6886 17.7583L10.6887 17.7582L11.4873 17.2975C11.35 16.8698 11.2596 16.4188 11.2596 15.9409C11.2596 15.463 11.3509 15.012 11.4874 14.5845L10.6887 14.1236L10.6886 14.1236C10.2143 13.8497 10.0517 13.2435 10.3254 12.7684C10.5993 12.2931 11.2038 12.1305 11.6807 12.4051L11.6808 12.4051L12.479 12.8661C13.0969 12.1942 13.9039 11.6968 14.8283 11.4901V10.5887C14.8283 10.041 15.2728 9.59652 15.8205 9.59652C16.3682 9.59652 16.8127 10.041 16.8127 10.5887V11.4901C17.7372 11.6959 18.5443 12.1933 19.1621 12.8661L19.9601 12.4052L20.9524 17.7582ZM20.9524 17.7582L20.1537 17.2974C20.2902 16.8699 20.3815 16.4189 20.3815 15.9409C20.3815 15.4631 20.291 15.0121 20.1538 14.5844L20.9524 14.1236L20.9524 14.1236M20.9524 17.7582L20.9524 14.1236M20.9524 14.1236C21.4267 13.8498 21.5894 13.2426 21.3156 12.7683L21.3155 12.7682M20.9524 14.1236L21.3155 12.7682M21.3155 12.7682C21.0409 12.2933 20.4347 12.1303 19.9602 12.4051L21.3155 12.7682ZM7.79085 11.5809C10.7983 11.5809 13.244 9.13525 13.244 6.12778C13.244 3.1203 10.7983 0.674658 7.79085 0.674658C4.78338 0.674658 2.33773 3.1203 2.33773 6.12778C2.33773 9.13525 4.78338 11.5809 7.79085 11.5809ZM7.79085 2.65903C9.70379 2.65903 11.2596 4.21484 11.2596 6.12778C11.2596 8.04071 9.70379 9.59652 7.79085 9.59652C5.87792 9.59652 4.3221 8.04071 4.3221 6.12778C4.3221 4.21484 5.87792 2.65903 7.79085 2.65903ZM15.8205 18.5175C14.4001 18.5175 13.244 17.3614 13.244 15.9409C13.244 14.5205 14.4001 13.3644 15.8205 13.3644C17.241 13.3644 18.3971 14.5205 18.3971 15.9409C18.3971 17.3614 17.241 18.5175 15.8205 18.5175Z" fill="#6C737F" stroke="#6C737F" stroke-width="0.2"/>
</svg>
