<svg width="20" height="21" viewBox="0 0 20 21" fill="none" xmlns="http://www.w3.org/2000/svg">
<path d="M8.71142 20.9533C8.2415 20.9533 7.83707 20.7983 7.49812 20.4884C7.15917 20.1784 6.95636 19.7968 6.88969 19.3435L6.66469 17.6875C6.47991 17.6162 6.30463 17.5301 6.13887 17.4294C5.97312 17.3287 5.81053 17.2216 5.65109 17.1082L4.10709 17.7582C3.67448 17.9455 3.23987 17.9632 2.80327 17.8112C2.36668 17.6592 2.02773 17.3816 1.78642 16.9783L0.497843 14.7191C0.256543 14.3198 0.186885 13.8945 0.288868 13.4432C0.390868 12.992 0.624835 12.6207 0.990768 12.3294L2.30979 11.3294C2.29711 11.2286 2.29077 11.1321 2.29077 11.0397V10.4604C2.29077 10.368 2.29711 10.2714 2.30979 10.1707L0.990768 9.17665C0.620851 8.88535 0.385893 8.51407 0.285893 8.0628C0.185893 7.61154 0.256543 7.18427 0.497843 6.781L1.78642 4.52775C2.02773 4.12847 2.36569 3.85184 2.80029 3.69785C3.23489 3.54387 3.66849 3.56054 4.10109 3.74785L5.66307 4.39785C5.82248 4.28445 5.98625 4.17839 6.15437 4.07965C6.32248 3.98092 6.49259 3.89586 6.66469 3.82448L6.88969 2.16253C6.95636 1.70528 7.15917 1.32167 7.49812 1.0117C7.83707 0.701735 8.2415 0.546753 8.71142 0.546753H11.2886C11.7585 0.546753 12.163 0.701735 12.5019 1.0117C12.8409 1.32167 13.0437 1.70528 13.1103 2.16253L13.3353 3.82448C13.5201 3.89586 13.6954 3.98092 13.8612 4.07965C14.0269 4.17839 14.1895 4.28445 14.3489 4.39785L15.8929 3.74785C16.3256 3.56054 16.7602 3.54387 17.1968 3.69785C17.6334 3.85184 17.9723 4.12847 18.2136 4.52775L19.5022 6.781C19.7435 7.18427 19.8141 7.61154 19.7141 8.0628C19.6141 8.51407 19.3792 8.88535 19.0093 9.17665L17.6843 10.1707C17.697 10.2714 17.7033 10.368 17.7033 10.4604V10.75C17.7033 10.8507 17.7023 10.9473 17.7003 11.0397C17.6983 11.1321 17.6846 11.2286 17.6593 11.3294L18.9843 12.3234C19.3542 12.6147 19.5891 12.986 19.6891 13.4373C19.7891 13.8885 19.7185 14.3158 19.4772 14.7191L18.1636 16.9783C17.9223 17.3776 17.5843 17.6542 17.1497 17.8082C16.7151 17.9622 16.2815 17.9455 15.8489 17.7582L14.337 17.1082C14.1776 17.2216 14.0138 17.3287 13.8457 17.4294C13.6776 17.5301 13.5074 17.6162 13.3353 17.6875L13.1103 19.3435C13.0437 19.7968 12.8409 20.1784 12.5019 20.4884C12.163 20.7983 11.7585 20.9533 11.2886 20.9533L8.71142 20.9533ZM9.06577 18.6783H10.9033L11.2593 16.0403C11.7799 15.9069 12.2661 15.7101 12.7177 15.4498C13.1693 15.1894 13.5785 14.868 13.9451 14.4854L16.4141 15.5104L17.3174 13.918L15.1853 12.3049C15.2687 12.0636 15.329 11.8118 15.3663 11.5495C15.4036 11.2872 15.4223 11.0207 15.4223 10.75C15.4223 10.4794 15.4036 10.2129 15.3663 9.95058C15.329 9.68826 15.2687 9.43645 15.1853 9.19513L17.3294 7.5821L16.4141 5.9897L13.9511 7.0397C13.5844 6.64442 13.1753 6.31462 12.7237 6.0503C12.272 5.78599 11.7839 5.58915 11.2593 5.4598L10.9343 2.82178H9.08479L8.74677 5.45383C8.21813 5.58318 7.72701 5.78001 7.27339 6.04433C6.81976 6.30863 6.40762 6.63209 6.03697 7.0147L3.57992 5.9897L2.67067 7.5821L4.79677 9.16415C4.71343 9.42212 4.6531 9.67909 4.61577 9.93508C4.57845 10.1911 4.55979 10.4627 4.55979 10.75C4.55979 11.0207 4.57845 11.285 4.61577 11.543C4.6531 11.8009 4.71343 12.0589 4.79677 12.3169L2.67067 13.918L3.57992 15.5104L6.03697 14.4663C6.40762 14.8576 6.82075 15.1854 7.27637 15.4498C7.73198 15.7141 8.22212 15.9129 8.74677 16.0462L9.06577 18.6783ZM10.0321 14.25C10.9988 14.25 11.8238 13.9084 12.5071 13.225C13.1904 12.5417 13.5321 11.7167 13.5321 10.75C13.5321 9.78336 13.1904 8.95836 12.5071 8.27503C11.8238 7.59169 10.9988 7.25003 10.0321 7.25003C9.05274 7.25003 8.22457 7.59169 7.54757 8.27503C6.87059 8.95836 6.53209 9.78336 6.53209 10.75C6.53209 11.7167 6.87059 12.5417 7.54757 13.225C8.22457 13.9084 9.05274 14.25 10.0321 14.25Z" fill="#6C737F"/>
</svg>
