<svg width="22" height="22" viewBox="0 0 22 22" fill="none" xmlns="http://www.w3.org/2000/svg">
<path d="M9.85648 15.4392L9.88451 15.4631C10.2938 15.812 10.3424 16.4267 9.99374 16.8367L9.99363 16.8368L9.55651 17.3492L9.55636 17.3493C9.49833 17.417 9.43111 17.4776 9.35458 17.5277C9.35445 17.5278 9.35432 17.5278 9.35419 17.5279L9.29947 17.4442C8.60881 17.905 7.67424 17.7817 7.12521 17.1549L9.85648 15.4392ZM9.85648 15.4392H9.85385C9.44476 15.114 8.84955 15.172 8.5091 15.5714L8.50902 15.5715L8.35738 15.7499M9.85648 15.4392L8.35738 15.7499M8.35738 15.7499L6.50064 13.5455L8.35738 15.7499ZM2.35741 19.8816C2.35741 17.8546 3.36602 15.9865 5.06767 14.8677L6.50055 13.5454C5.90424 12.8354 4.86313 12.6776 4.08134 13.1785L4.08132 13.1785C1.78233 14.6525 0.408911 17.1591 0.408911 19.8816V20.8477C0.408911 21.3864 0.845411 21.8219 1.38316 21.8219C1.92091 21.8219 2.35741 21.3864 2.35741 20.8477V19.8816ZM8.37801 11.331C11.3261 11.331 13.7235 8.93359 13.7235 5.98547C13.7235 3.03736 11.3261 0.63999 8.37801 0.63999C5.4299 0.63999 3.03253 3.03736 3.03253 5.98547C3.03253 8.93359 5.4299 11.331 8.37801 11.331ZM8.37801 2.58848C10.2514 2.58848 11.775 4.11211 11.775 5.98547C11.775 7.85884 10.2514 9.38246 8.37801 9.38246C6.50465 9.38246 4.98102 7.85883 4.98102 5.98547C4.98102 4.11211 6.50465 2.58848 8.37801 2.58848ZM18.869 12.8795H14.4977C12.9965 12.8795 11.775 14.101 11.775 15.6022V19.0992C11.775 20.6004 12.9965 21.8219 14.4977 21.8219H18.869C20.3702 21.8219 21.5917 20.6004 21.5917 19.0992V15.6022C21.5917 14.101 20.3702 12.8795 18.869 12.8795ZM19.6432 19.0992C19.6432 19.5265 19.2955 19.8734 18.869 19.8734H14.4977C14.0712 19.8734 13.7235 19.5265 13.7235 19.0992V15.6022C13.7235 15.1749 14.0712 14.8279 14.4977 14.8279H18.869C19.2955 14.8279 19.6432 15.1749 19.6432 15.6022V19.0992ZM17.1205 17.4507C17.6582 17.4507 18.0947 17.0152 18.0947 16.4764C18.0947 15.9377 17.6582 15.5022 17.1205 15.5022H16.2462C15.7085 15.5022 15.272 15.9377 15.272 16.4764C15.272 17.0152 15.7085 17.4507 16.2462 17.4507H17.1205Z" fill="#6C737F" stroke="#6C737F" stroke-width="0.2"/>
</svg>
