<svg width="22" height="22" viewBox="0 0 22 22" fill="none" xmlns="http://www.w3.org/2000/svg">
<path d="M7.03241 11.9626H7.03253C8.11084 11.9614 9.14464 11.5326 9.90713 10.7701C10.6696 10.0076 11.0985 8.97378 11.0997 7.89547V7.89536C11.0997 7.09093 10.8611 6.30456 10.4142 5.6357C9.96731 4.96684 9.33209 4.44553 8.58889 4.13768C7.8457 3.82984 7.0279 3.7493 6.23893 3.90623C5.44995 4.06317 4.72523 4.45054 4.15642 5.01936C3.5876 5.58818 3.20023 6.3129 3.04329 7.10187C2.88635 7.89085 2.9669 8.70864 3.27474 9.45184C3.58258 10.195 4.1039 10.8303 4.77276 11.2772C5.44162 11.7241 6.22798 11.9626 7.03241 11.9626ZM15.8486 8.43617H15.8487C16.927 8.43497 17.9608 8.00608 18.7233 7.2436C19.4858 6.48112 19.9147 5.44731 19.9159 4.369V4.36889C19.9159 3.56446 19.6773 2.77809 19.2304 2.10923C18.7835 1.44037 18.1483 0.919059 17.4051 0.611216C16.6619 0.303374 15.8441 0.222828 15.0551 0.379765C14.2661 0.536701 13.5414 0.924072 12.9726 1.49289C12.4038 2.06171 12.0164 2.78643 11.8595 3.5754C11.7025 4.36438 11.7831 5.18217 12.0909 5.92537C12.3988 6.66857 12.9201 7.30379 13.5889 7.75071C14.2578 8.19762 15.0442 8.43617 15.8486 8.43617ZM5.86347 6.14591C6.20948 5.91472 6.61627 5.79132 7.03241 5.79132C7.59044 5.79132 8.12561 6.01299 8.5202 6.40757C8.91478 6.80216 9.13646 7.33733 9.13646 7.89536C9.13646 8.3115 9.01306 8.71829 8.78186 9.0643C8.55067 9.41031 8.22206 9.67999 7.8376 9.83924C7.45313 9.99849 7.03008 10.0402 6.62194 9.95897C6.21379 9.87779 5.83889 9.6774 5.54463 9.38314C5.25038 9.08888 5.04999 8.71398 4.9688 8.30584C4.88762 7.89769 4.92928 7.47464 5.08853 7.09018C5.24778 6.70571 5.51746 6.37711 5.86347 6.14591ZM13.7445 20.6788V20.238C13.7445 18.4578 13.0374 16.7506 11.7786 15.4918C10.5198 14.233 8.81258 13.5259 7.03241 13.5259C5.25225 13.5259 3.54499 14.233 2.28622 15.4918C1.02746 16.7506 0.320288 18.4578 0.320288 20.238V20.6788C0.320288 20.9391 0.423708 21.1888 0.607797 21.3729C0.791886 21.557 1.04156 21.6604 1.3019 21.6604C1.56225 21.6604 1.81192 21.557 1.99601 21.3729C2.1801 21.1888 2.28352 20.9391 2.28352 20.6788V20.238C2.28352 18.9785 2.78385 17.7706 3.67444 16.88C4.56503 15.9894 5.77293 15.4891 7.03241 15.4891C8.2919 15.4891 9.4998 15.9894 10.3904 16.88C11.281 17.7706 11.7813 18.9785 11.7813 20.238V20.6788C11.7813 20.9391 11.8847 21.1888 12.0688 21.3729C12.2529 21.557 12.5026 21.6604 12.7629 21.6604C13.0233 21.6604 13.2729 21.557 13.457 21.3729C13.6411 21.1888 13.7445 20.9391 13.7445 20.6788ZM21.6791 16.2707C21.6791 15.0601 21.3286 13.8753 20.67 12.8594C20.0115 11.8436 19.073 11.0401 17.9678 10.5459C16.8626 10.0517 15.638 9.88793 14.4418 10.0744C13.2457 10.2609 12.1292 10.7895 11.2269 11.5965C11.1297 11.682 11.0503 11.786 10.9934 11.9023C10.9364 12.0188 10.9031 12.1455 10.8954 12.2749C10.8876 12.4043 10.9056 12.534 10.9482 12.6565C10.9909 12.7789 11.0574 12.8917 11.1439 12.9883C11.2304 13.085 11.3352 13.1635 11.4522 13.2194C11.5692 13.2752 11.6961 13.3074 11.8256 13.3139C11.9551 13.3205 12.0847 13.3013 12.2067 13.2575C12.3286 13.2138 12.4406 13.1464 12.5363 13.0592C13.1562 12.505 13.9231 12.142 14.7447 12.014C15.5664 11.886 16.4076 11.9986 17.1667 12.3381C17.9258 12.6777 18.5705 13.2296 19.0228 13.9275C19.4751 14.6253 19.7158 15.4391 19.7159 16.2707C19.7159 16.5311 19.8193 16.7807 20.0034 16.9648C20.1875 17.1489 20.4371 17.2523 20.6975 17.2523C20.9578 17.2523 21.2075 17.1489 21.3916 16.9648C21.5757 16.7807 21.6791 16.5311 21.6791 16.2707ZM14.6796 2.61944C15.0256 2.38825 15.4324 2.26485 15.8486 2.26485C16.4066 2.26485 16.9418 2.48652 17.3364 2.88111C17.731 3.27569 17.9526 3.81086 17.9526 4.36889C17.9526 4.78503 17.8292 5.19182 17.598 5.53783C17.3668 5.88384 17.0382 6.15352 16.6538 6.31277C16.2693 6.47202 15.8462 6.51369 15.4381 6.4325C15.03 6.35132 14.6551 6.15093 14.3608 5.85667C14.0665 5.56242 13.8662 5.18751 13.785 4.77937C13.7038 4.37122 13.7455 3.94817 13.9047 3.56371C14.064 3.17924 14.3336 2.85064 14.6796 2.61944Z" fill="#6C737F" stroke="#6C737F" stroke-width="0.2"/>
</svg>
