<svg width="89" height="87" viewBox="0 0 89 87" fill="none" xmlns="http://www.w3.org/2000/svg">
<path d="M15.6453 11.5219L43.0185 4.18724C52.9937 1.51438 60.2196 5.87473 62.9979 16.2435L70.6147 44.6696C73.393 55.0384 69.3154 62.4275 59.3402 65.1004L31.9669 72.435C21.9917 75.1079 14.7918 70.7405 12.0135 60.3718L4.39676 31.9456C1.61846 21.5769 5.67004 14.1947 15.6453 11.5219Z" fill="url(#paint0_linear_758_22626)"/>
<g filter="url(#filter0_f_758_22626)">
<path d="M22.7117 20.2946L41.2959 15.315C48.0682 13.5003 52.9206 16.2615 54.7127 22.9495L59.6256 41.2847C61.4176 47.9728 58.5959 52.7902 51.8236 54.6048L33.2394 59.5844C26.4671 61.3991 21.6323 58.6332 19.8403 51.9452L14.9274 33.6099C13.1353 26.9219 15.9394 22.1092 22.7117 20.2946Z" fill="#30AD31" fill-opacity="0.5"/>
</g>
<g filter="url(#filter1_b_758_22626)">
<mask id="path-3-outside-1_758_22626" maskUnits="userSpaceOnUse" x="19.0586" y="16.4131" width="70" height="70" fill="black">
<rect fill="white" x="19.0586" y="16.4131" width="70" height="70"/>
<path d="M69.8271 17.4131H38.1531C26.5767 17.4131 20.0586 23.9312 20.0586 35.5076V67.2155C20.0586 78.724 26.5767 85.3101 38.1531 85.3101H69.861C81.4035 85.3101 87.9556 78.724 87.9556 67.2155V35.5076C87.9556 23.9312 81.3695 17.4131 69.8271 17.4131Z"/>
</mask>
<path d="M69.8271 17.4131H38.1531C26.5767 17.4131 20.0586 23.9312 20.0586 35.5076V67.2155C20.0586 78.724 26.5767 85.3101 38.1531 85.3101H69.861C81.4035 85.3101 87.9556 78.724 87.9556 67.2155V35.5076C87.9556 23.9312 81.3695 17.4131 69.8271 17.4131Z" fill="#72DC60" fill-opacity="0.35"/>
<path d="M69.8271 18.275C70.3031 18.275 70.689 17.8891 70.689 17.4131C70.689 16.9371 70.3031 16.5512 69.8271 16.5512V18.275ZM69.8271 16.5512C69.351 16.5512 68.9652 16.9371 68.9652 17.4131C68.9652 17.8891 69.351 18.275 69.8271 18.275V16.5512ZM69.8271 16.5512H38.1531V18.275H69.8271V16.5512ZM38.1531 16.5512C32.2061 16.5512 27.4369 18.2281 24.1552 21.5097C20.8736 24.7914 19.1967 29.5605 19.1967 35.5076H20.9205C20.9205 29.8783 22.5026 25.6002 25.3742 22.7287C28.2457 19.8571 32.5238 18.275 38.1531 18.275V16.5512ZM19.1967 35.5076V67.2155H20.9205V35.5076H19.1967ZM19.1967 67.2155C19.1967 73.1298 20.8742 77.8979 24.1544 81.1871C27.435 84.4767 32.2037 86.172 38.1531 86.172V84.4482C32.5262 84.4482 28.2476 82.8504 25.375 79.9699C22.502 77.0889 20.9205 72.8097 20.9205 67.2155H19.1967ZM38.1531 86.172H69.861V84.4482H38.1531V86.172ZM69.861 86.172C75.7941 86.172 80.5622 84.4764 83.8466 81.1875C87.1307 77.8988 88.8175 73.131 88.8175 67.2155H87.0937C87.0937 72.8085 85.5043 77.088 82.6268 79.9694C79.7495 82.8507 75.4704 84.4482 69.861 84.4482V86.172ZM88.8175 67.2155V35.5076H87.0937V67.2155H88.8175ZM88.8175 35.5076C88.8175 29.5582 87.1222 24.7892 83.8279 21.5085C80.5342 18.2284 75.7577 16.5512 69.8271 16.5512V18.275C75.4389 18.275 79.7266 19.8569 82.6115 22.7299C85.4959 25.6024 87.0937 29.8807 87.0937 35.5076H88.8175Z" fill="url(#paint1_linear_758_22626)" mask="url(#path-3-outside-1_758_22626)"/>
</g>
<g filter="url(#filter2_bd_758_22626)">
<mask id="path-5-inside-2_758_22626" fill="white">
<path d="M66.4324 54.1763H56.7911V63.7837C56.7911 65.3454 55.535 66.6015 53.9733 66.6015C52.4117 66.6015 51.1556 65.3454 51.1556 63.7837V54.1763H41.5482C39.9866 54.1424 38.7305 52.8863 38.7305 51.3246C38.7305 50.5744 39.036 49.8649 39.5452 49.3217C40.0884 48.8125 40.8013 48.5069 41.5482 48.5069H51.1556V38.9334C51.1556 37.3718 52.4117 36.1157 53.9733 36.1157C55.535 36.1157 56.7911 37.3718 56.7911 38.9334V48.5069H66.4324C67.9941 48.5069 69.2502 49.763 69.2502 51.3246C69.2502 52.8863 67.9941 54.1424 66.4324 54.1763Z"/>
</mask>
<path d="M66.4324 54.1763H56.7911V63.7837C56.7911 65.3454 55.535 66.6015 53.9733 66.6015C52.4117 66.6015 51.1556 65.3454 51.1556 63.7837V54.1763H41.5482C39.9866 54.1424 38.7305 52.8863 38.7305 51.3246C38.7305 50.5744 39.036 49.8649 39.5452 49.3217C40.0884 48.8125 40.8013 48.5069 41.5482 48.5069H51.1556V38.9334C51.1556 37.3718 52.4117 36.1157 53.9733 36.1157C55.535 36.1157 56.7911 37.3718 56.7911 38.9334V48.5069H66.4324C67.9941 48.5069 69.2502 49.763 69.2502 51.3246C69.2502 52.8863 67.9941 54.1424 66.4324 54.1763Z" fill="url(#paint2_linear_758_22626)"/>
<path d="M56.7911 54.1763V54.0039H56.6187V54.1763H56.7911ZM51.1556 54.1763H51.328V54.0039H51.1556V54.1763ZM41.5482 54.1763L41.5444 54.3487H41.5482V54.1763ZM39.5452 49.3217L39.4271 49.1957L39.4195 49.2038L39.5452 49.3217ZM51.1556 48.5069V48.6793H51.328V48.5069H51.1556ZM56.7911 48.5069H56.6187V48.6793H56.7911V48.5069ZM66.4324 54.0039H56.7911V54.3487H66.4324V54.0039ZM56.6187 54.1763V63.7837H56.9634V54.1763H56.6187ZM56.6187 63.7837C56.6187 65.2502 55.4398 66.4291 53.9733 66.4291V66.7738C55.6302 66.7738 56.9634 65.4406 56.9634 63.7837H56.6187ZM53.9733 66.4291C52.5069 66.4291 51.328 65.2502 51.328 63.7837H50.9832C50.9832 65.4406 52.3165 66.7738 53.9733 66.7738V66.4291ZM51.328 63.7837V54.1763H50.9832V63.7837H51.328ZM51.1556 54.0039H41.5482V54.3487H51.1556V54.0039ZM41.5519 54.004C40.0819 53.972 38.9028 52.7904 38.9028 51.3246H38.5581C38.5581 52.9822 39.8913 54.3127 41.5444 54.3487L41.5519 54.004ZM38.9028 51.3246C38.9028 50.6218 39.1891 49.9536 39.671 49.4396L39.4195 49.2038C38.8829 49.7761 38.5581 50.5269 38.5581 51.3246H38.9028ZM39.6631 49.4474C40.177 48.9656 40.8487 48.6793 41.5482 48.6793V48.3345C40.754 48.3345 39.9998 48.6593 39.4273 49.1959L39.6631 49.4474ZM41.5482 48.6793H51.1556V48.3345H41.5482V48.6793ZM51.328 48.5069V38.9334H50.9832V48.5069H51.328ZM51.328 38.9334C51.328 37.467 52.5069 36.2881 53.9733 36.2881V35.9433C52.3165 35.9433 50.9832 37.2766 50.9832 38.9334H51.328ZM53.9733 36.2881C55.4398 36.2881 56.6187 37.467 56.6187 38.9334H56.9634C56.9634 37.2766 55.6302 35.9433 53.9733 35.9433V36.2881ZM56.6187 38.9334V48.5069H56.9634V38.9334H56.6187ZM56.7911 48.6793H66.4324V48.3345H56.7911V48.6793ZM66.4324 48.6793C67.8989 48.6793 69.0778 49.8582 69.0778 51.3246H69.4225C69.4225 49.6678 68.0893 48.3345 66.4324 48.3345V48.6793ZM69.0778 51.3246C69.0778 52.7904 67.8988 53.972 66.4287 54.004L66.4362 54.3487C68.0894 54.3127 69.4225 52.9822 69.4225 51.3246H69.0778Z" fill="url(#paint3_linear_758_22626)" fill-opacity="0.5" mask="url(#path-5-inside-2_758_22626)"/>
</g>
<defs>
<filter id="filter0_f_758_22626" x="0.607972" y="0.979554" width="73.3348" height="72.9398" filterUnits="userSpaceOnUse" color-interpolation-filters="sRGB">
<feFlood flood-opacity="0" result="BackgroundImageFix"/>
<feBlend mode="normal" in="SourceGraphic" in2="BackgroundImageFix" result="shape"/>
<feGaussianBlur stdDeviation="6.89523" result="effect1_foregroundBlur_758_22626"/>
</filter>
<filter id="filter1_b_758_22626" x="-1.48941" y="-4.13443" width="110.992" height="110.992" filterUnits="userSpaceOnUse" color-interpolation-filters="sRGB">
<feFlood flood-opacity="0" result="BackgroundImageFix"/>
<feGaussianBlur in="BackgroundImageFix" stdDeviation="10.3429"/>
<feComposite in2="SourceAlpha" operator="in" result="effect1_backgroundBlur_758_22626"/>
<feBlend mode="normal" in="SourceGraphic" in2="effect1_backgroundBlur_758_22626" result="shape"/>
</filter>
<filter id="filter2_bd_758_22626" x="25.8019" y="23.1872" width="56.3767" height="56.343" filterUnits="userSpaceOnUse" color-interpolation-filters="sRGB">
<feFlood flood-opacity="0" result="BackgroundImageFix"/>
<feGaussianBlur in="BackgroundImageFix" stdDeviation="6.46428"/>
<feComposite in2="SourceAlpha" operator="in" result="effect1_backgroundBlur_758_22626"/>
<feColorMatrix in="SourceAlpha" type="matrix" values="0 0 0 0 0 0 0 0 0 0 0 0 0 0 0 0 0 0 127 0" result="hardAlpha"/>
<feOffset dx="4.30952" dy="4.30952"/>
<feGaussianBlur stdDeviation="4.30952"/>
<feColorMatrix type="matrix" values="0 0 0 0 0.454902 0 0 0 0 0.870588 0 0 0 0 0.376471 0 0 0 0.5 0"/>
<feBlend mode="normal" in2="effect1_backgroundBlur_758_22626" result="effect2_dropShadow_758_22626"/>
<feBlend mode="normal" in="SourceGraphic" in2="effect2_dropShadow_758_22626" result="shape"/>
</filter>
<linearGradient id="paint0_linear_758_22626" x1="0.044327" y1="15.7021" x2="56.2381" y2="52.7136" gradientUnits="userSpaceOnUse">
<stop stop-color="#9BF763"/>
<stop offset="1" stop-color="#26AB5B"/>
</linearGradient>
<linearGradient id="paint1_linear_758_22626" x1="30.8667" y1="25.3232" x2="74.1777" y2="78.9649" gradientUnits="userSpaceOnUse">
<stop stop-color="white" stop-opacity="0.25"/>
<stop offset="1" stop-color="white" stop-opacity="0"/>
</linearGradient>
<linearGradient id="paint2_linear_758_22626" x1="67.0863" y1="41.6208" x2="33.0904" y2="42.7305" gradientUnits="userSpaceOnUse">
<stop stop-color="white"/>
<stop offset="1" stop-color="white" stop-opacity="0.2"/>
</linearGradient>
<linearGradient id="paint3_linear_758_22626" x1="42.0181" y1="46.3422" x2="67.9335" y2="46.4854" gradientUnits="userSpaceOnUse">
<stop stop-color="white"/>
<stop offset="1" stop-color="white" stop-opacity="0"/>
</linearGradient>
</defs>
</svg>
