<svg width="93" height="77" viewBox="0 0 93 77" fill="none" xmlns="http://www.w3.org/2000/svg">
<path fill-rule="evenodd" clip-rule="evenodd" d="M5.98746 19.6465H45.3465C48.286 19.6465 50.667 22.0991 50.667 25.1271V28.9559C50.667 30.4248 50.093 31.8354 49.0737 32.8642L32.8111 49.314C32.6833 49.4445 32.5346 49.5486 32.3733 49.623V62.4848C32.3733 63.2643 31.9306 63.9696 31.2407 64.2958L20.224 69.4688C19.9666 69.5882 19.6938 69.6465 19.4209 69.6465C19.058 69.6465 18.695 69.5404 18.3784 69.331C17.825 68.965 17.4904 68.334 17.4904 67.6579V49.5613C17.3259 49.4794 17.1757 49.3665 17.0479 49.2265L2.10329 32.7899C1.17922 31.7744 0.666992 30.4328 0.666992 29.0407V25.1298C0.666992 22.1018 3.04794 19.6465 5.98746 19.6465Z" fill="url(#paint0_linear_758_22206)"/>
<g filter="url(#filter0_f_758_22206)">
<rect x="26.9209" y="15.9668" width="23.6181" height="14.9844" rx="3" transform="rotate(45 26.9209 15.9668)" fill="#8237FF" fill-opacity="0.5"/>
</g>
<g filter="url(#filter1_b_758_22206)">
<mask id="path-3-outside-1_758_22206" maskUnits="userSpaceOnUse" x="16.667" y="1" width="76" height="76" fill="black">
<rect fill="white" x="16.667" y="1" width="76" height="76"/>
<path fill-rule="evenodd" clip-rule="evenodd" d="M25.5057 2H83.4938C87.8247 2 91.3325 5.61349 91.3325 10.0747V15.7156C91.3325 17.8798 90.4868 19.9581 88.9851 21.4738L65.0253 45.7095C64.6119 46.1314 64.0507 46.3658 63.4705 46.3619L43.4092 46.2994C42.7986 46.2994 42.2184 46.0377 41.8012 45.5806L19.7831 21.3644C18.4217 19.8682 17.667 17.8915 17.667 15.8406V10.0786C17.667 5.61739 21.1749 2 25.5057 2ZM44.4827 52.9179L62.3634 52.9726C63.4784 52.9765 64.3809 53.9102 64.3809 55.0548V65.1139C64.3809 66.2624 63.7287 67.3016 62.7123 67.7821L46.4813 75.4036C46.102 75.5794 45.7 75.6653 45.2981 75.6653C44.7633 75.6653 44.2286 75.5091 43.7622 75.2004C42.9468 74.6614 42.4538 73.7316 42.4538 72.7355V55.0001C42.4538 53.8477 43.364 52.914 44.4827 52.9179Z"/>
</mask>
<path fill-rule="evenodd" clip-rule="evenodd" d="M25.5057 2H83.4938C87.8247 2 91.3325 5.61349 91.3325 10.0747V15.7156C91.3325 17.8798 90.4868 19.9581 88.9851 21.4738L65.0253 45.7095C64.6119 46.1314 64.0507 46.3658 63.4705 46.3619L43.4092 46.2994C42.7986 46.2994 42.2184 46.0377 41.8012 45.5806L19.7831 21.3644C18.4217 19.8682 17.667 17.8915 17.667 15.8406V10.0786C17.667 5.61739 21.1749 2 25.5057 2ZM44.4827 52.9179L62.3634 52.9726C63.4784 52.9765 64.3809 53.9102 64.3809 55.0548V65.1139C64.3809 66.2624 63.7287 67.3016 62.7123 67.7821L46.4813 75.4036C46.102 75.5794 45.7 75.6653 45.2981 75.6653C44.7633 75.6653 44.2286 75.5091 43.7622 75.2004C42.9468 74.6614 42.4538 73.7316 42.4538 72.7355V55.0001C42.4538 53.8477 43.364 52.914 44.4827 52.9179Z" fill="#BA90FF" fill-opacity="0.35"/>
<path d="M88.9851 21.4738L88.2747 20.7699L88.274 20.7707L88.9851 21.4738ZM65.0253 45.7095L64.3142 45.0065L64.311 45.0097L65.0253 45.7095ZM63.4705 46.3619L63.4772 45.3619L63.4736 45.3619L63.4705 46.3619ZM43.4092 46.2994L43.4123 45.2994H43.4092V46.2994ZM41.8012 45.5806L41.0613 46.2533L41.0626 46.2547L41.8012 45.5806ZM19.7831 21.3644L20.523 20.6917L20.5227 20.6914L19.7831 21.3644ZM62.3634 52.9726L62.3669 51.9726L62.3665 51.9726L62.3634 52.9726ZM44.4827 52.9179L44.4792 53.9179L44.4797 53.9179L44.4827 52.9179ZM62.7123 67.7821L63.1374 68.6872L63.1397 68.6861L62.7123 67.7821ZM46.4813 75.4036L46.9018 76.3109L46.9063 76.3088L46.4813 75.4036ZM43.7622 75.2004L44.3139 74.3665L44.3137 74.3663L43.7622 75.2004ZM83.4938 1H25.5057V3H83.4938V1ZM92.3325 10.0747C92.3325 5.08937 88.4047 1 83.4938 1V3C87.2446 3 90.3325 6.13761 90.3325 10.0747H92.3325ZM92.3325 15.7156V10.0747H90.3325V15.7156H92.3325ZM89.6955 22.1776C91.3862 20.4711 92.3325 18.1384 92.3325 15.7156H90.3325C90.3325 17.6212 89.5874 19.445 88.2747 20.7699L89.6955 22.1776ZM65.7365 46.4126L89.6962 22.1768L88.274 20.7707L64.3142 45.0065L65.7365 46.4126ZM63.4637 47.3619C64.3185 47.3676 65.1389 47.0224 65.7396 46.4094L64.311 45.0097C64.0849 45.2404 63.7829 45.364 63.4772 45.3619L63.4637 47.3619ZM43.406 47.2994L63.4673 47.3619L63.4736 45.3619L43.4123 45.2994L43.406 47.2994ZM41.0626 46.2547C41.6635 46.9131 42.5092 47.2994 43.4092 47.2994V45.2994C43.088 45.2994 42.7732 45.1622 42.5398 44.9065L41.0626 46.2547ZM19.0432 22.0371L41.0613 46.2533L42.5411 44.9079L20.523 20.6917L19.0432 22.0371ZM16.667 15.8406C16.667 18.1353 17.5111 20.3533 19.0435 22.0374L20.5227 20.6914C19.3323 19.3831 18.667 17.6478 18.667 15.8406H16.667ZM16.667 10.0786V15.8406H18.667V10.0786H16.667ZM25.5057 1C20.5942 1 16.667 5.09391 16.667 10.0786H18.667C18.667 6.14087 21.7555 3 25.5057 3V1ZM62.3665 51.9726L44.4858 51.9179L44.4797 53.9179L62.3604 53.9726L62.3665 51.9726ZM65.3809 55.0548C65.3809 53.3865 64.0596 51.9786 62.3669 51.9726L62.3599 53.9726C62.8971 53.9745 63.3809 54.4338 63.3809 55.0548H65.3809ZM65.3809 65.1139V55.0548H63.3809V65.1139H65.3809ZM63.1397 68.6861C64.5131 68.0368 65.3809 66.6409 65.3809 65.1139H63.3809C63.3809 65.884 62.9442 66.5663 62.2849 66.878L63.1397 68.6861ZM46.9063 76.3088L63.1374 68.6872L62.2873 66.8769L46.0562 74.4984L46.9063 76.3088ZM45.2981 76.6653C45.8438 76.6653 46.3894 76.5484 46.9018 76.3109L46.0607 74.4963C45.8146 74.6104 45.5563 74.6653 45.2981 74.6653V76.6653ZM43.2104 76.0344C43.8414 76.4519 44.5682 76.6653 45.2981 76.6653V74.6653C44.9584 74.6653 44.6158 74.5662 44.3139 74.3665L43.2104 76.0344ZM41.4538 72.7355C41.4538 74.059 42.1084 75.3058 43.2106 76.0346L44.3137 74.3663C43.7852 74.0169 43.4538 73.4042 43.4538 72.7355H41.4538ZM41.4538 55.0001V72.7355H43.4538V55.0001H41.4538ZM44.4862 51.9179C42.7864 51.912 41.4538 53.3219 41.4538 55.0001H43.4538C43.4538 54.3735 43.9416 53.916 44.4792 53.9179L44.4862 51.9179Z" fill="url(#paint1_linear_758_22206)" mask="url(#path-3-outside-1_758_22206)"/>
</g>
<defs>
<filter id="filter0_f_758_22206" x="0.567871" y="0.209473" width="58.811" height="58.8105" filterUnits="userSpaceOnUse" color-interpolation-filters="sRGB">
<feFlood flood-opacity="0" result="BackgroundImageFix"/>
<feBlend mode="normal" in="SourceGraphic" in2="BackgroundImageFix" result="shape"/>
<feGaussianBlur stdDeviation="8.5" result="effect1_foregroundBlur_758_22206"/>
</filter>
<filter id="filter1_b_758_22206" x="-7.33301" y="-23" width="123.666" height="123.666" filterUnits="userSpaceOnUse" color-interpolation-filters="sRGB">
<feFlood flood-opacity="0" result="BackgroundImageFix"/>
<feGaussianBlur in="BackgroundImageFix" stdDeviation="12"/>
<feComposite in2="SourceAlpha" operator="in" result="effect1_backgroundBlur_758_22206"/>
<feBlend mode="normal" in="SourceGraphic" in2="effect1_backgroundBlur_758_22206" result="shape"/>
</filter>
<linearGradient id="paint0_linear_758_22206" x1="25.667" y1="19.6465" x2="25.667" y2="69.6465" gradientUnits="userSpaceOnUse">
<stop stop-color="#BC94FF"/>
<stop offset="1" stop-color="#9F66FF"/>
</linearGradient>
<linearGradient id="paint1_linear_758_22206" x1="29.3933" y1="10.5821" x2="76.384" y2="68.7813" gradientUnits="userSpaceOnUse">
<stop stop-color="white" stop-opacity="0.25"/>
<stop offset="1" stop-color="white" stop-opacity="0"/>
</linearGradient>
</defs>
</svg>
