<svg width="194" height="36" viewBox="0 0 194 36" fill="none" xmlns="http://www.w3.org/2000/svg">
<g clip-path="url(#clip0_1342_114736)">
<path d="M27.0501 15.057L26.2566 22.8261L23.4143 22.5337L13.254 21.4924H13.2486L18.4785 32.0057L11.4815 35.4811L4.06189 20.5526V20.5509H4.06367L9.13848 13.2222L23.4143 14.6843L27.0501 15.057Z" fill="#005394"/>
<path d="M23.4144 0V7.93852L7.92425 10.7737H7.91891L0 12.2252V4.28309L4.30092 3.49851H4.30449L23.4144 0Z" fill="#005394"/>
<path d="M44.6535 22.011V29.1739H37.3818V5.78271H53.9579V11.84H44.6535V16.1463H53.4318V22.0092H44.6535V22.011Z" fill="#005394"/>
<path d="M56.7413 29.1721V5.78271H64.0147V29.1721H56.7413Z" fill="#005394"/>
<path d="M83.9644 23.4737C83.6149 25.526 82.7358 27.0774 81.3272 28.1259C79.9185 29.1743 78.0016 29.6986 75.5783 29.6986C72.6504 29.6986 70.4126 28.9336 68.8631 27.4055C67.3117 25.8773 66.5378 23.6609 66.5378 20.7562C66.5378 17.8086 67.3296 15.5048 68.913 13.8447C70.4964 12.1846 72.6861 11.3555 75.4803 11.3555C78.1657 11.3555 80.268 12.1418 81.7872 13.7146C83.3047 15.2873 84.0643 17.4716 84.0643 20.2658V22.0347H73.123C73.1675 23.0386 73.3744 23.7661 73.7453 24.2137C74.1162 24.6612 74.6957 24.8859 75.4821 24.8859C76.5965 24.8859 77.283 24.4169 77.5469 23.4772H83.9644V23.4737ZM77.7074 18.5593C77.6628 17.6856 77.472 17.0579 77.1332 16.6763C76.7944 16.2948 76.2755 16.1022 75.5766 16.1022C74.0698 16.1022 73.262 16.9206 73.1533 18.5593H77.7074Z" fill="#005394"/>
<path d="M96.1183 29.1721L93.695 25.1423L91.3039 29.1721H84.0643L90.0592 20.5739L84.6546 11.8757H92.2864L94.1212 15.4135L96.1843 11.8757H103.13L97.7553 20.0817L103.554 29.1721H96.1183Z" fill="#005394"/>
<path d="M105.355 10.2068V5.78467H112.629V10.2068H105.355ZM105.355 29.1723V11.8759H112.629V29.1723H105.355Z" fill="#005394"/>
<path d="M116.854 5.78271H119.868V15.6756H134.513V5.78271H137.526V29.1721H134.513V18.4929H119.868V29.1721H116.854V5.78271Z" fill="#005394"/>
<path d="M142.278 5.78271H145.228V10.2049H142.278V5.78271ZM142.377 11.84H145.226V29.1721H142.377V11.84Z" fill="#005394"/>
</g>
<defs>
<clipPath id="clip0_1342_114736">
<rect width="194" height="35.4811" fill="white"/>
</clipPath>
</defs>
</svg>
