<svg width="114" height="99" viewBox="0 0 114 99" fill="none" xmlns="http://www.w3.org/2000/svg">
<path fill-rule="evenodd" clip-rule="evenodd" d="M55.8796 52.7059C59.2132 40.265 71.8935 32.8533 84.202 36.1513C90.1127 37.7351 95.1454 41.6273 98.193 46.9717C101.241 52.3161 102.053 58.6749 100.453 64.6492C97.119 77.0901 84.4387 84.5018 72.1302 81.2038C59.8217 77.9057 52.5461 65.1468 55.8796 52.7059ZM95.2218 82.6963L100.424 89.8326L100.539 89.8635C101.518 91.5806 100.928 93.7813 99.2219 94.7788C97.5153 95.7762 95.3381 95.1929 94.3589 93.4757L90.5423 85.6869C90.1621 85.0228 90.0603 84.2319 90.2594 83.4889C90.4585 82.7458 90.9421 82.1117 91.6034 81.7267C92.8749 80.9984 94.4848 81.4297 95.2218 82.6963Z" fill="url(#paint0_linear_758_22217)"/>
<g filter="url(#filter0_f_758_22217)">
<path d="M81.4551 46.4055C74.7489 44.6085 67.8401 48.6468 66.0239 55.4251C64.2076 62.2035 68.1717 69.1551 74.8779 70.952C81.5841 72.7489 88.4929 68.7107 90.3091 61.9323C91.1813 58.6773 90.7385 55.2127 89.078 52.3009C87.4176 49.389 84.6755 47.2684 81.4551 46.4055Z" fill="#0062FF" fill-opacity="0.5"/>
</g>
<g filter="url(#filter1_b_758_22217)">
<g filter="url(#filter2_b_758_22217)">
<mask id="path-3-outside-1_758_22217" maskUnits="userSpaceOnUse" x="-1.83436" y="-1.22474" width="101.654" height="101.654" fill="black">
<rect fill="white" x="-1.83436" y="-1.22474" width="101.654" height="101.654"/>
<path fill-rule="evenodd" clip-rule="evenodd" d="M86.6336 33.6006C81.6613 15.0435 62.747 3.98799 44.3874 8.90743C35.5708 11.2698 28.0639 17.0755 23.5181 25.0473C18.9723 33.0191 17.7599 42.504 20.1477 51.4155C25.1201 69.9726 44.0344 81.0281 62.3939 76.1087C80.7535 71.1892 91.606 52.1577 86.6336 33.6006ZM27.9515 78.3369L20.1922 88.9817L20.0203 89.0277C18.5598 91.589 19.4393 94.8715 21.9849 96.3594C24.5304 97.8473 27.778 96.9771 29.2385 94.4158L34.9316 82.7978C35.4987 81.8073 35.6505 80.6275 35.3535 79.5191C35.0565 78.4108 34.3352 77.465 33.3488 76.8907C31.4521 75.8043 29.0508 76.4477 27.9515 78.3369Z"/>
</mask>
<path fill-rule="evenodd" clip-rule="evenodd" d="M86.6336 33.6006C81.6613 15.0435 62.747 3.98799 44.3874 8.90743C35.5708 11.2698 28.0639 17.0755 23.5181 25.0473C18.9723 33.0191 17.7599 42.504 20.1477 51.4155C25.1201 69.9726 44.0344 81.0281 62.3939 76.1087C80.7535 71.1892 91.606 52.1577 86.6336 33.6006ZM27.9515 78.3369L20.1922 88.9817L20.0203 89.0277C18.5598 91.589 19.4393 94.8715 21.9849 96.3594C24.5304 97.8473 27.778 96.9771 29.2385 94.4158L34.9316 82.7978C35.4987 81.8073 35.6505 80.6275 35.3535 79.5191C35.0565 78.4108 34.3352 77.465 33.3488 76.8907C31.4521 75.8043 29.0508 76.4477 27.9515 78.3369Z" fill="#3EA0FE" fill-opacity="0.35"/>
<path d="M23.5181 25.0473L22.6494 24.552L23.5181 25.0473ZM20.1922 88.9817L21.0003 89.5707C20.8657 89.7554 20.6718 89.8884 20.4511 89.9476L20.1922 88.9817ZM27.9515 78.3369L28.8158 78.8399C28.7986 78.8695 28.7798 78.8982 28.7596 78.926L27.9515 78.3369ZM20.0203 89.0277L19.1517 88.5324C19.284 88.3004 19.5036 88.1309 19.7615 88.0618L20.0203 89.0277ZM21.9849 96.3594L21.4802 97.2228L21.4802 97.2228L21.9849 96.3594ZM29.2385 94.4158L30.1365 94.8558C30.1273 94.8746 30.1175 94.893 30.1072 94.9112L29.2385 94.4158ZM34.9316 82.7978L34.0336 82.3577C34.043 82.3385 34.0531 82.3195 34.0637 82.3009L34.9316 82.7978ZM33.3488 76.8907L33.8458 76.023L33.8519 76.0265L33.3488 76.8907ZM44.1286 7.9415C63.0314 2.87652 82.4869 14.261 87.5996 33.3418L85.6677 33.8594C80.8357 15.826 62.4626 5.09946 44.6462 9.87335L44.1286 7.9415ZM22.6494 24.552C27.3267 16.3496 35.0525 10.3734 44.1286 7.9415L44.6462 9.87335C36.0892 12.1662 28.8011 17.8015 24.3868 25.5427L22.6494 24.552ZM19.1818 51.6743C16.7262 42.51 17.9723 32.7539 22.6494 24.552L24.3868 25.5427C19.9722 33.2843 18.7936 42.4981 21.1136 51.1566L19.1818 51.6743ZM62.6528 77.0746C43.75 82.1396 24.2945 70.7551 19.1818 51.6743L21.1136 51.1566C25.9457 69.1901 44.3187 79.9166 62.1351 75.1427L62.6528 77.0746ZM87.5996 33.3418C92.7122 52.4226 81.5555 72.0096 62.6528 77.0746L62.1351 75.1427C79.9515 70.3688 90.4997 51.8928 85.6677 33.8594L87.5996 33.3418ZM19.3841 88.3926L27.1434 77.7479L28.7596 78.926L21.0003 89.5707L19.3841 88.3926ZM19.7615 88.0618L19.9334 88.0157L20.4511 89.9476L20.2792 89.9937L19.7615 88.0618ZM21.4802 97.2228C18.4615 95.4583 17.4196 91.5698 19.1517 88.5324L20.889 89.5231C19.7 91.6083 20.4172 94.2848 22.4895 95.4961L21.4802 97.2228ZM30.1072 94.9112C28.371 97.9559 24.5062 98.9914 21.4802 97.2228L22.4895 95.4961C24.5546 96.7031 27.1849 95.9983 28.3698 93.9204L30.1072 94.9112ZM35.8295 83.2378L30.1365 94.8558L28.3405 93.9758L34.0336 82.3577L35.8295 83.2378ZM36.3194 79.2603C36.6843 80.6221 36.4984 82.0737 35.7994 83.2946L34.0637 82.3009C34.4989 81.5408 34.6167 80.6329 34.3876 79.7779L36.3194 79.2603ZM33.8519 76.0265C35.0678 76.7344 35.9545 77.8985 36.3194 79.2603L34.3876 79.7779C34.1585 78.923 33.6025 78.1956 32.8456 77.7549L33.8519 76.0265ZM27.0872 77.834C28.463 75.4697 31.4722 74.6633 33.8458 76.023L32.8517 77.7584C31.432 76.9452 29.6387 77.4257 28.8158 78.8399L27.0872 77.834Z" fill="url(#paint1_linear_758_22217)" mask="url(#path-3-outside-1_758_22217)"/>
</g>
</g>
<defs>
<filter id="filter0_f_758_22217" x="50.5835" y="30.9785" width="55.1631" height="55.4004" filterUnits="userSpaceOnUse" color-interpolation-filters="sRGB">
<feFlood flood-opacity="0" result="BackgroundImageFix"/>
<feBlend mode="normal" in="SourceGraphic" in2="BackgroundImageFix" result="shape"/>
<feGaussianBlur stdDeviation="7.5" result="effect1_foregroundBlur_758_22217"/>
</filter>
<filter id="filter1_b_758_22217" x="-6.0498" y="-17.2622" width="118.89" height="139.348" filterUnits="userSpaceOnUse" color-interpolation-filters="sRGB">
<feFlood flood-opacity="0" result="BackgroundImageFix"/>
<feGaussianBlur in="BackgroundImageFix" stdDeviation="12"/>
<feComposite in2="SourceAlpha" operator="in" result="effect1_backgroundBlur_758_22217"/>
<feBlend mode="normal" in="SourceGraphic" in2="effect1_backgroundBlur_758_22217" result="shape"/>
</filter>
<filter id="filter2_b_758_22217" x="-6.0498" y="-17.2622" width="118.89" height="139.348" filterUnits="userSpaceOnUse" color-interpolation-filters="sRGB">
<feFlood flood-opacity="0" result="BackgroundImageFix"/>
<feGaussianBlur in="BackgroundImageFix" stdDeviation="12"/>
<feComposite in2="SourceAlpha" operator="in" result="effect1_backgroundBlur_758_22217"/>
<feBlend mode="normal" in="SourceGraphic" in2="effect1_backgroundBlur_758_22217" result="shape"/>
</filter>
<linearGradient id="paint0_linear_758_22217" x1="114.092" y1="44.1603" x2="44.6382" y2="75.205" gradientUnits="userSpaceOnUse">
<stop stop-color="#39AFFD"/>
<stop offset="1" stop-color="#477FFF"/>
</linearGradient>
<linearGradient id="paint1_linear_758_22217" x1="67.7117" y1="12.3363" x2="19.6316" y2="93.3382" gradientUnits="userSpaceOnUse">
<stop stop-color="white" stop-opacity="0.25"/>
<stop offset="1" stop-color="white" stop-opacity="0"/>
</linearGradient>
</defs>
</svg>
